# xmcd CD database file
#
# Track frame offsets:
#	150
#	13759
#	34363
#	54808
#	67895
#	91209
#	107679
#	124720
#	141172
#	161758
#	182342
#	200270
#
# Disc length: 2878 seconds
#
# Revision: 0
# Processed by: cddbd v1.5.2PL0 Copyright (c) Steve Scherf et al.
# Submitted via: CDex 1.51
#
DISCID=970b3c0c
DTITLE=MICHAEL COLEMAN - Shake Your Booty
DYEAR=1995
DGENRE=Blues
TTITLE0=Mojo
TTITLE1=Lost My Job In The City
TTITLE2=Shake Your Booty
TTITLE3=Kansas City
TTITLE4=Homeless Man
TTITLE5=Love Somebody
TTITLE6=Hey Joe
TTITLE7=Midnight Rider
TTITLE8=Hurt Avenue
TTITLE9=Tee Ni Nee Na Nu
TTITLE10=I Play The Blues For You
TTITLE11=Tore Down
EXTD=YEAR: 1995
EXTT0=
EXTT1=
EXTT2=
EXTT3=
EXTT4=
EXTT5=
EXTT6=
EXTT7=
EXTT8=
EXTT9=
EXTT10=
EXTT11=
PLAYORDER=
